<svg width="45" height="45" viewBox="0 0 45 45" fill="none" xmlns="http://www.w3.org/2000/svg">
<path d="M37.3154 3.90967H15.9613C14.8889 3.90967 14.0195 4.77902 14.0195 5.85143V34.0008C14.0195 35.0732 14.8889 35.9425 15.9613 35.9425H37.3154C38.3878 35.9425 39.2571 35.0732 39.2571 34.0008V5.85143C39.2571 4.77902 38.3878 3.90967 37.3154 3.90967Z" fill="#EF6262"/>
<path d="M30.3213 2.3394L9.28584 6.01445C8.22943 6.19902 7.52266 7.20502 7.70723 8.26142L13.2771 40.1427C13.4617 41.1991 14.4677 41.9059 15.5241 41.7213L36.5595 38.0462C37.6159 37.8617 38.3227 36.8557 38.1382 35.7993L32.5682 3.91801C32.3837 2.8616 31.3777 2.15484 30.3213 2.3394Z" fill="#6BFF73"/>
<path d="M28.1214 6.66595L12.8226 9.33877C12.2944 9.43105 11.941 9.93405 12.0333 10.4623L14.5962 25.1319C14.6885 25.6601 15.1915 26.0135 15.7197 25.9212L31.0185 23.2484C31.5467 23.1561 31.9001 22.6531 31.8078 22.1249L29.2449 7.45525C29.1526 6.92705 28.6496 6.57366 28.1214 6.66595Z" fill="white"/>
<path d="M23.5292 1.56008L3.13567 7.89245C2.1115 8.21046 1.53905 9.29851 1.85706 10.3227L11.4544 41.2311C11.7724 42.2553 12.8605 42.8277 13.8846 42.5097L34.2782 36.1774C35.3023 35.8593 35.8748 34.7713 35.5568 33.7471L25.9595 2.83869C25.6414 1.81452 24.5534 1.24207 23.5292 1.56008Z" fill="#33B9C4"/>
<path d="M26.8885 22.2116L20.84 24.087L13.4848 26.3627L12.0516 26.8056C11.5457 26.9739 10.9974 26.6789 10.8504 26.1731L8.80584 19.6188L6.4247 11.9474C6.27677 11.4416 6.55138 10.8933 7.05719 10.725L21.8932 6.13099C22.4203 5.96268 22.9474 6.25767 23.1157 6.76348L24.7802 12.137L27.5201 20.9883C27.6884 21.4941 27.3934 22.0425 26.8876 22.2108L26.8885 22.2116Z" fill="black"/>
<path d="M15.7093 31.4664C15.2584 31.4664 14.843 31.1776 14.703 30.7258C14.5303 30.1704 14.8412 29.5795 15.3966 29.4068L25.4606 26.2815C26.0249 26.1115 26.6087 26.4206 26.7797 26.9751C26.9524 27.5306 26.6415 28.1214 26.086 28.2942L16.022 31.4194C15.9175 31.4513 15.8121 31.4664 15.7093 31.4664Z" fill="white"/>
<path d="M16.9583 35.4904C16.5074 35.4904 16.092 35.2017 15.952 34.7499C15.7793 34.1945 16.0902 33.6036 16.6456 33.4309L26.7097 30.3056C27.2757 30.1364 27.8577 30.4447 28.0287 30.9992C28.2014 31.5547 27.8905 32.1455 27.3351 32.3182L17.271 35.4435C17.1665 35.4754 17.0611 35.4904 16.9583 35.4904Z" fill="white"/>
<path d="M20.8408 24.0876L13.4856 26.3633L12.0524 26.8063C11.5465 26.9746 10.9982 26.6796 10.8512 26.1738L8.80664 19.6194C10.8512 16.7954 14.686 15.7838 17.9317 17.3641L20.8399 24.0867L20.8408 24.0876Z" fill="#F16CFF"/>
<path d="M13.0859 27.1645C13.1074 27.1645 13.1495 27.1645 13.171 27.1431L13.0859 27.186V27.1645Z" fill="#F6A967"/>
<path d="M26.889 22.212L20.8405 24.0873L13.4854 26.363L17.9323 17.3646L18.501 16.1847C19.7447 13.6981 22.1887 12.2223 24.7807 12.1382L27.5206 20.9895C27.6889 21.4953 27.3939 22.0436 26.8881 22.212H26.889Z" fill="white"/>
<path d="M16.268 15.0659C17.6927 15.0659 18.8476 13.911 18.8476 12.4863C18.8476 11.0616 17.6927 9.90674 16.268 9.90674C14.8434 9.90674 13.6885 11.0616 13.6885 12.4863C13.6885 13.911 14.8434 15.0659 16.268 15.0659Z" fill="white"/>
<path d="M43.2349 37.111V27.6883C43.2349 26.9132 42.8213 26.1974 42.1507 25.8103L33.9903 21.0994C33.3197 20.7123 32.4932 20.7123 31.8218 21.0994L23.6614 25.8103C22.9908 26.1974 22.5771 26.9132 22.5771 27.6883V37.111C22.5771 37.8861 22.9908 38.6018 23.6614 38.989L31.8218 43.6999C32.4924 44.087 33.3188 44.087 33.9903 43.6999L42.1507 38.989C42.8213 38.6018 43.2349 37.8861 43.2349 37.111Z" fill="black"/>
<path d="M41.6058 36.5297V28.2692C41.6058 27.7174 41.3108 27.2071 40.8334 26.9307L33.6793 22.8001C33.201 22.5237 32.6119 22.5237 32.1335 22.8001L24.9795 26.9307C24.5011 27.2071 24.207 27.7174 24.207 28.2692V36.5297C24.207 37.0816 24.502 37.5918 24.9795 37.8682L32.1335 41.9989C32.6119 42.2753 33.201 42.2753 33.6793 41.9989L40.8334 37.8682C41.3117 37.5918 41.6058 37.0816 41.6058 36.5297Z" fill="#F16CFF"/>
<path d="M33.8076 34.297L34.1315 33.511C34.4778 33.7539 34.8185 33.8753 35.1536 33.8753C35.6686 33.8753 35.9261 33.6954 35.9261 33.3356C35.9261 33.1669 35.8654 33.0061 35.7439 32.8532C35.6225 32.7003 35.3717 32.5294 34.9917 32.3404C34.6138 32.1493 34.3586 31.993 34.2259 31.8716C34.0955 31.7479 33.9943 31.6017 33.9223 31.433C33.8526 31.2644 33.8177 31.0777 33.8177 30.873C33.8177 30.4907 33.9572 30.1736 34.236 29.9218C34.5171 29.6699 34.877 29.5439 35.3155 29.5439C35.8867 29.5439 36.3061 29.6508 36.5738 29.8644L36.3073 30.62C35.9992 30.3997 35.6742 30.2895 35.3324 30.2895C35.13 30.2895 34.9725 30.3434 34.8601 30.4514C34.7499 30.5571 34.6948 30.6954 34.6948 30.8663C34.6948 31.1497 35.0085 31.4443 35.636 31.7501C35.9666 31.912 36.2049 32.0616 36.3511 32.1988C36.4973 32.3337 36.6086 32.4922 36.6851 32.6744C36.7615 32.8543 36.7998 33.0556 36.7998 33.2782C36.7998 33.6785 36.6412 34.008 36.3241 34.2666C36.0093 34.5252 35.5865 34.6546 35.0558 34.6546C34.5947 34.6546 34.1787 34.5354 33.8076 34.297Z" fill="#6BFF73"/>
<path d="M32.1621 34.5704V32.344H30.1954V34.5704H29.3184V29.6284H30.1954V31.5647H32.1621V29.6284H33.029V34.5704H32.1621Z" fill="#6BFF73"/>
</svg>
