<?xml version="1.0" encoding="UTF-8"?>
<svg width="45" height="46" viewBox="0 0 45 46" fill="none" xmlns="http://www.w3.org/2000/svg">
  <path d="M33.3861 39.5324H4.2933C3.06286 39.5324 2.05566 38.5252 2.05566 37.2948V8.20205C2.05566 6.97162 3.06286 5.96442 4.2933 5.96442H40.0998C41.3303 5.96442 42.3375 6.97162 42.3375 8.20205V28.7686" fill="#32B8C3"/>
  <path d="M22.197 26.1063C17.2531 21.1625 9.23806 21.1625 4.29418 26.1063L2.05566 28.3449V37.2963C2.05566 37.2963 2.05566 39.5339 4.2933 39.5339H23.3158L22.197 26.1063Z" fill="#407E84"/>
  <path d="M8.76953 39.5327L23.827 24.4752C28.5672 19.7351 36.1792 19.5119 41.1895 23.965L42.3384 24.9864V39.5327H8.76953Z" fill="#090401"/>
  <path d="M29.2461 19.5586L23.546 14.5615C23.0234 14.0941 22.347 13.8358 21.6459 13.8358C20.9449 13.8358 20.2684 14.0941 19.7459 14.5615L14.0458 19.5586C13.7441 19.8285 13.5033 20.1595 13.3394 20.5297C13.1756 20.8999 13.0926 21.3008 13.0958 21.7056V30.0088C13.0958 30.7647 13.3961 31.4896 13.9306 32.0241C14.465 32.5585 15.19 32.8588 15.9458 32.8588H27.346C28.1019 32.8588 28.8268 32.5585 29.3613 32.0241C29.8958 31.4896 30.1961 30.7647 30.1961 30.0088V21.6961C30.198 21.2929 30.1142 20.8939 29.9505 20.5254C29.7867 20.1569 29.5466 19.8274 29.2461 19.5586ZM23.546 30.9588H19.7459V26.2087C19.7459 25.9567 19.846 25.7151 20.0242 25.5369C20.2023 25.3588 20.444 25.2587 20.6959 25.2587H22.596C22.8479 25.2587 23.0896 25.3588 23.2677 25.5369C23.4459 25.7151 23.546 25.9567 23.546 26.2087V30.9588ZM28.2961 30.0088C28.2961 30.2607 28.196 30.5024 28.0178 30.6805C27.8396 30.8587 27.598 30.9588 27.346 30.9588H25.446V26.2087C25.446 25.4528 25.1457 24.7279 24.6112 24.1934C24.0768 23.6589 23.3518 23.3587 22.596 23.3587H20.6959C19.94 23.3587 19.2151 23.6589 18.6806 24.1934C18.1461 24.7279 17.8459 25.4528 17.8459 26.2087V30.9588H15.9458C15.6939 30.9588 15.4522 30.8587 15.2741 30.6805C15.0959 30.5024 14.9958 30.2607 14.9958 30.0088V21.6961C14.996 21.5612 15.0249 21.4279 15.0806 21.3051C15.1363 21.1822 15.2175 21.0726 15.3188 20.9836L21.0189 15.996C21.1923 15.8437 21.4152 15.7597 21.6459 15.7597C21.8767 15.7597 22.0996 15.8437 22.273 15.996L27.9731 20.9836C28.0744 21.0726 28.1556 21.1822 28.2113 21.3051C28.267 21.4279 28.2959 21.5612 28.2961 21.6961V30.0088Z" fill="white"/>
</svg> 