<svg width="45" height="46" viewBox="0 0 45 46" fill="none" xmlns="http://www.w3.org/2000/svg">
<path d="M39.9964 32.6025H36.3298C35.8235 32.6025 35.4131 33.0129 35.4131 33.5192V37.1859C35.4131 37.6921 35.8235 38.1025 36.3298 38.1025H39.9964C40.5027 38.1025 40.9131 37.6921 40.9131 37.1859V33.5192C40.9131 33.0129 40.5027 32.6025 39.9964 32.6025Z" fill="#FEC1FF"/>
<path d="M27.7545 7.89665C27.6115 7.77601 27.4349 7.70204 27.2486 7.68467C27.0623 7.6673 26.8751 7.70736 26.7123 7.79948L23.5094 9.61082L21.5716 5.61873C21.4983 5.46766 21.3849 5.33964 21.2437 5.24863C21.1026 5.15762 20.9392 5.10712 20.7714 5.10265C20.6035 5.09653 20.4373 5.13749 20.2915 5.22092C20.1457 5.30435 20.0261 5.42691 19.9464 5.57473L17.6831 9.65207L14.7654 8.07723C14.601 7.98823 14.4134 7.95158 14.2277 7.97219C14.0419 7.9928 13.8669 8.06969 13.7261 8.19255C13.5853 8.31542 13.4854 8.47838 13.4398 8.65962C13.3942 8.84085 13.4051 9.03169 13.471 9.20657L15.836 15.5086C15.9016 15.6832 16.0189 15.8335 16.1722 15.9397C16.3255 16.0458 16.5076 16.1026 16.694 16.1026H24.7992C24.9879 16.1026 25.1721 16.0443 25.3265 15.9357C25.4809 15.8271 25.598 15.6735 25.6618 15.4958L28.0258 8.90682C28.089 8.73086 28.0969 8.53979 28.0484 8.35923C27.9999 8.17868 27.8974 8.01727 27.7545 7.89665Z" fill="#FEC1FF"/>
<path d="M25.3304 14.2695H16.1637C15.6575 14.2695 15.2471 14.6799 15.2471 15.1862V29.8529C15.2471 30.3591 15.6575 30.7695 16.1637 30.7695H25.3304C25.8367 30.7695 26.2471 30.3591 26.2471 29.8529V15.1862C26.2471 14.6799 25.8367 14.2695 25.3304 14.2695Z" fill="white"/>
<path d="M16.1634 14.2695H8.83008C8.10073 14.2695 7.40126 14.5593 6.88553 15.075C6.36981 15.5907 6.08008 16.2902 6.08008 17.0195V29.8529C6.08008 30.096 6.17666 30.3291 6.34856 30.501C6.52047 30.673 6.75363 30.7695 6.99674 30.7695H16.1634C16.4065 30.7695 16.6397 30.673 16.8116 30.501C16.9835 30.3291 17.0801 30.096 17.0801 29.8529V15.1862C17.0801 14.9431 16.9835 14.7099 16.8116 14.538C16.6397 14.3661 16.4065 14.2695 16.1634 14.2695ZM32.6634 14.2695H25.3301C25.087 14.2695 24.8538 14.3661 24.6819 14.538C24.51 14.7099 24.4134 14.9431 24.4134 15.1862V29.8529C24.4134 30.096 24.51 30.3291 24.6819 30.501C24.8538 30.673 25.087 30.7695 25.3301 30.7695H34.4967C34.7399 30.7695 34.973 30.673 35.1449 30.501C35.3168 30.3291 35.4134 30.096 35.4134 29.8529V17.0195C35.4134 16.2902 35.1237 15.5907 34.608 15.075C34.0922 14.5593 33.3928 14.2695 32.6634 14.2695Z" fill="white"/>
<path d="M34.4971 28.936H6.99707C5.47829 28.936 4.24707 30.1673 4.24707 31.686V39.0194C4.24707 40.5382 5.47829 41.7694 6.99707 41.7694H34.4971C36.0159 41.7694 37.2471 40.5382 37.2471 39.0194V31.686C37.2471 30.1673 36.0159 28.936 34.4971 28.936Z" fill="#FEC1FF"/>
<path d="M29.9134 32.6025H11.5801C10.8507 32.6025 10.1513 32.8923 9.63553 33.408C9.11981 33.9237 8.83008 34.6232 8.83008 35.3525C8.83008 36.0819 9.11981 36.7814 9.63553 37.2971C10.1513 37.8128 10.8507 38.1025 11.5801 38.1025H29.9134C30.6428 38.1025 31.3422 37.8128 31.858 37.2971C32.3737 36.7814 32.6634 36.0819 32.6634 35.3525C32.6634 34.6232 32.3737 33.9237 31.858 33.408C31.3422 32.8923 30.6428 32.6025 29.9134 32.6025ZM38.1634 7.85254C37.4341 7.85254 36.7346 8.14227 36.2189 8.658C35.7031 9.17372 35.4134 9.87319 35.4134 10.6025V12.4359C35.4134 13.1652 35.7031 13.8647 36.2189 14.3804C36.7346 14.8961 37.4341 15.1859 38.1634 15.1859C38.8928 15.1859 39.5922 14.8961 40.108 14.3804C40.6237 13.8647 40.9134 13.1652 40.9134 12.4359V10.6025C40.9134 9.87319 40.6237 9.17372 40.108 8.658C39.5922 8.14227 38.8928 7.85254 38.1634 7.85254Z" fill="white"/>
<path d="M25.3304 30.7695H16.1637C15.9206 30.7695 15.6875 30.673 15.5156 30.501C15.3436 30.3291 15.2471 30.096 15.2471 29.8529V15.1862C15.2471 14.9431 15.3436 14.7099 15.5156 14.538C15.6875 14.3661 15.9206 14.2695 16.1637 14.2695H25.3304C25.5735 14.2695 25.8067 14.3661 25.9786 14.538C26.1505 14.7099 26.2471 14.9431 26.2471 15.1862V29.8529C26.2471 30.096 26.1505 30.3291 25.9786 30.501C25.8067 30.673 25.5735 30.7695 25.3304 30.7695ZM17.0804 28.9362H24.4137V16.1029H17.0804V28.9362Z" fill="#FF5353"/>
<path d="M16.1634 30.7695H6.99674C6.75363 30.7695 6.52047 30.673 6.34856 30.501C6.17666 30.3291 6.08008 30.096 6.08008 29.8529V17.0195C6.08008 16.2902 6.36981 15.5907 6.88553 15.075C7.40126 14.5593 8.10073 14.2695 8.83008 14.2695H16.1634C16.4065 14.2695 16.6397 14.3661 16.8116 14.538C16.9835 14.7099 17.0801 14.9431 17.0801 15.1862V29.8529C17.0801 30.096 16.9835 30.3291 16.8116 30.501C16.6397 30.673 16.4065 30.7695 16.1634 30.7695ZM7.91341 28.9362H15.2467V16.1029H8.83008C8.58696 16.1029 8.35381 16.1994 8.1819 16.3713C8.00999 16.5433 7.91341 16.7764 7.91341 17.0195V28.9362ZM34.4967 30.7695H25.3301C25.087 30.7695 24.8538 30.673 24.6819 30.501C24.51 30.3291 24.4134 30.096 24.4134 29.8529V15.1862C24.4134 14.9431 24.51 14.7099 24.6819 14.538C24.8538 14.3661 25.087 14.2695 25.3301 14.2695H32.6634C33.3928 14.2695 34.0922 14.5593 34.608 15.075C35.1237 15.5907 35.4134 16.2902 35.4134 17.0195V29.8529C35.4134 30.096 35.3168 30.3291 35.1449 30.501C34.973 30.673 34.7399 30.7695 34.4967 30.7695ZM26.2467 28.9362H33.5801V17.0195C33.5801 16.7764 33.4835 16.5433 33.3116 16.3713C33.1397 16.1994 32.9065 16.1029 32.6634 16.1029H26.2467V28.9362Z" fill="#FF5353"/>
<path d="M28.9971 27.1027C28.9538 27.1028 28.9106 27.0997 28.8678 27.0935C28.6272 27.0595 28.4099 26.9312 28.2638 26.737C28.1176 26.5427 28.0547 26.2984 28.0887 26.0577C28.3995 23.8576 29.0942 21.7292 30.1411 19.7694H28.0804C27.8373 19.7694 27.6041 19.6728 27.4322 19.5009C27.2603 19.329 27.1637 19.0958 27.1637 18.8527C27.1637 18.6096 27.2603 18.3764 27.4322 18.2045C27.6041 18.0326 27.8373 17.936 28.0804 17.936H31.7471C31.9122 17.936 32.0743 17.9806 32.2161 18.065C32.358 18.1495 32.4745 18.2707 32.5532 18.4159C32.6318 18.5611 32.6699 18.7248 32.6632 18.8898C32.6565 19.0548 32.6054 19.2149 32.5152 19.3532C31.1457 21.4544 30.2545 23.8308 29.9046 26.3144C29.8737 26.5331 29.7648 26.7332 29.5981 26.8781C29.4314 27.0229 29.2179 27.1027 28.9971 27.1027ZM19.8304 27.1027C19.7872 27.1028 19.744 27.0997 19.7012 27.0935C19.4605 27.0595 19.2432 26.9312 19.0971 26.737C18.951 26.5427 18.888 26.2984 18.922 26.0577C19.2329 23.8576 19.9275 21.7292 20.9744 19.7694H18.9137C18.6706 19.7694 18.4375 19.6728 18.2656 19.5009C18.0936 19.329 17.9971 19.0958 17.9971 18.8527C17.9971 18.6096 18.0936 18.3764 18.2656 18.2045C18.4375 18.0326 18.6706 17.936 18.9137 17.936H22.5804C22.7455 17.936 22.9076 17.9806 23.0495 18.065C23.1914 18.1495 23.3078 18.2707 23.3865 18.4159C23.4652 18.5611 23.5032 18.7248 23.4965 18.8898C23.4898 19.0548 23.4387 19.2149 23.3486 19.3532C21.979 21.4544 21.0878 23.8308 20.7379 26.3144C20.707 26.5331 20.5981 26.7332 20.4314 26.8781C20.2647 27.0229 20.0513 27.1027 19.8304 27.1027ZM10.6637 27.1027C10.6205 27.1028 10.5773 27.0997 10.5345 27.0935C10.2938 27.0595 10.0765 26.9312 9.93042 26.737C9.78431 26.5427 9.72132 26.2984 9.75532 26.0577C10.0662 23.8576 10.7609 21.7292 11.8077 19.7694H9.74707C9.50396 19.7694 9.2708 19.6728 9.09889 19.5009C8.92698 19.329 8.8304 19.0958 8.8304 18.8527C8.8304 18.6096 8.92698 18.3764 9.09889 18.2045C9.2708 18.0326 9.50396 17.936 9.74707 17.936H13.4137C13.5789 17.936 13.7409 17.9806 13.8828 18.065C14.0247 18.1495 14.1411 18.2707 14.2198 18.4159C14.2985 18.5611 14.3365 18.7248 14.3299 18.8898C14.3232 19.0548 14.2721 19.2149 14.1819 19.3532C12.8124 21.4544 11.9211 23.8308 11.5712 26.3144C11.5403 26.5331 11.4315 26.7332 11.2647 26.8781C11.098 27.0229 10.8846 27.1027 10.6637 27.1027ZM34.4971 41.7694H6.99707C6.26772 41.7694 5.56825 41.4796 5.05253 40.9639C4.5368 40.4482 4.24707 39.7487 4.24707 39.0194V31.686C4.24707 30.9567 4.5368 30.2572 5.05253 29.7415C5.56825 29.2258 6.26772 28.936 6.99707 28.936H34.4971C35.2264 28.936 35.9259 29.2258 36.4416 29.7415C36.9573 30.2572 37.2471 30.9567 37.2471 31.686V39.0194C37.2471 39.7487 36.9573 40.4482 36.4416 40.9639C35.9259 41.4796 35.2264 41.7694 34.4971 41.7694ZM6.99707 30.7694C6.75396 30.7694 6.5208 30.866 6.34889 31.0379C6.17698 31.2098 6.0804 31.4429 6.0804 31.686V39.0194C6.0804 39.2625 6.17698 39.4957 6.34889 39.6676C6.5208 39.8395 6.75396 39.936 6.99707 39.936H34.4971C34.7402 39.936 34.9733 39.8395 35.1453 39.6676C35.3172 39.4957 35.4137 39.2625 35.4137 39.0194V31.686C35.4137 31.4429 35.3172 31.2098 35.1453 31.0379C34.9733 30.866 34.7402 30.7694 34.4971 30.7694H6.99707ZM24.7997 16.1027H16.6945C16.508 16.1027 16.326 16.0459 16.1727 15.9397C16.0194 15.8336 15.9021 15.6832 15.8365 15.5087L13.4715 9.20663C13.4056 9.03176 13.3947 8.84092 13.4403 8.65968C13.4859 8.47845 13.5858 8.31548 13.7266 8.19261C13.8674 8.06975 14.0424 7.99286 14.2281 7.97225C14.4139 7.95164 14.6015 7.98829 14.7658 8.07729L17.6836 9.65213L19.945 5.57479C20.0245 5.42676 20.144 5.30402 20.2899 5.22056C20.4357 5.1371 20.6021 5.09627 20.77 5.10271C20.9377 5.10735 21.1009 5.15792 21.2419 5.24892C21.3828 5.33993 21.4961 5.46786 21.5693 5.61879L23.5081 9.61088L26.7109 7.79954C26.8737 7.70701 27.061 7.66658 27.2475 7.68369C27.434 7.7008 27.6108 7.77463 27.7541 7.89525C27.8974 8.01587 28.0003 8.17749 28.049 8.35835C28.0976 8.53921 28.0897 8.73064 28.0263 8.90688L25.6622 15.4959C25.5984 15.6735 25.4813 15.8272 25.327 15.9358C25.1726 16.0444 24.9884 16.1027 24.7997 16.1027ZM17.3297 14.2694H24.1543L25.4679 10.61L23.5622 11.6871C23.4532 11.7486 23.3328 11.7872 23.2083 11.8004C23.0839 11.8136 22.9581 11.8011 22.8386 11.7639C22.7191 11.7266 22.6086 11.6653 22.5137 11.5837C22.4189 11.502 22.3417 11.4019 22.2871 11.2893L20.693 8.00671L18.8468 11.336C18.7296 11.5468 18.5341 11.7029 18.3027 11.7705C18.0712 11.8381 17.8224 11.8118 17.6102 11.6972L16.0519 10.8539L17.3297 14.2694Z" fill="#FF5353"/>
<path d="M39.9964 38.1025H36.3298C36.0866 38.1025 35.8535 38.006 35.6816 37.8341C35.5097 37.6621 35.4131 37.429 35.4131 37.1859V33.5192C35.4131 33.2761 35.5097 33.0429 35.6816 32.871C35.8535 32.6991 36.0866 32.6025 36.3298 32.6025H39.9964C40.2395 32.6025 40.4727 32.6991 40.6446 32.871C40.8165 33.0429 40.9131 33.2761 40.9131 33.5192V37.1859C40.9131 37.429 40.8165 37.6621 40.6446 37.8341C40.4727 38.006 40.2395 38.1025 39.9964 38.1025ZM37.2464 36.2692H39.0798V34.4359H37.2464V36.2692ZM38.1631 15.1859C37.4337 15.1859 36.7343 14.8961 36.2185 14.3804C35.7028 13.8647 35.4131 13.1652 35.4131 12.4359V10.6025C35.4131 9.87319 35.7028 9.17372 36.2185 8.658C36.7343 8.14227 37.4337 7.85254 38.1631 7.85254C38.8924 7.85254 39.5919 8.14227 40.1076 8.658C40.6234 9.17372 40.9131 9.87319 40.9131 10.6025V12.4359C40.9131 13.1652 40.6234 13.8647 40.1076 14.3804C39.5919 14.8961 38.8924 15.1859 38.1631 15.1859ZM38.1631 9.68587C37.92 9.68587 37.6868 9.78245 37.5149 9.95436C37.343 10.1263 37.2464 10.3594 37.2464 10.6025V12.4359C37.2464 12.679 37.343 12.9121 37.5149 13.0841C37.6868 13.256 37.92 13.3525 38.1631 13.3525C38.4062 13.3525 38.6394 13.256 38.8113 13.0841C38.9832 12.9121 39.0798 12.679 39.0798 12.4359V10.6025C39.0798 10.3594 38.9832 10.1263 38.8113 9.95436C38.6394 9.78245 38.4062 9.68587 38.1631 9.68587Z" fill="#FF5353"/>
<path d="M38.1634 34.4359C37.9203 34.4359 37.6871 34.3393 37.5152 34.1674C37.3433 33.9955 37.2467 33.7623 37.2467 33.5192V14.2692C37.2467 14.0261 37.3433 13.7929 37.5152 13.621C37.6871 13.4491 37.9203 13.3525 38.1634 13.3525C38.4065 13.3525 38.6397 13.4491 38.8116 13.621C38.9835 13.7929 39.0801 14.0261 39.0801 14.2692V33.5192C39.0801 33.7623 38.9835 33.9955 38.8116 34.1674C38.6397 34.3393 38.4065 34.4359 38.1634 34.4359ZM29.9134 38.1025H11.5801C10.8507 38.1025 10.1513 37.8128 9.63553 37.2971C9.11981 36.7814 8.83008 36.0819 8.83008 35.3525C8.83008 34.6232 9.11981 33.9237 9.63553 33.408C10.1513 32.8923 10.8507 32.6025 11.5801 32.6025H29.9134C30.6428 32.6025 31.3422 32.8923 31.858 33.408C32.3737 33.9237 32.6634 34.6232 32.6634 35.3525C32.6634 36.0819 32.3737 36.7814 31.858 37.2971C31.3422 37.8128 30.6428 38.1025 29.9134 38.1025ZM11.5801 34.4359C11.337 34.4359 11.1038 34.5324 10.9319 34.7044C10.76 34.8763 10.6634 35.1094 10.6634 35.3525C10.6634 35.5957 10.76 35.8288 10.9319 36.0007C11.1038 36.1726 11.337 36.2692 11.5801 36.2692H29.9134C30.1565 36.2692 30.3897 36.1726 30.5616 36.0007C30.7335 35.8288 30.8301 35.5957 30.8301 35.3525C30.8301 35.1094 30.7335 34.8763 30.5616 34.7044C30.3897 34.5324 30.1565 34.4359 29.9134 34.4359H11.5801Z" fill="#FF5353"/>
</svg>
