<?xml version="1.0" encoding="UTF-8"?>
<svg width="32" height="32" viewBox="0 0 32 32" fill="none" xmlns="http://www.w3.org/2000/svg">
  <g clip-path="url(#clip0_2006_20373)">
    <path d="M29.3355 21.202V9.42579C29.3355 8.45772 28.8191 7.56316 27.9806 7.07851L17.7816 1.191C16.9431 0.706964 15.9103 0.706964 15.0718 1.191L4.87347 7.07913C4.03498 7.56316 3.51855 8.45772 3.51855 9.42641V21.2027C3.51855 22.1707 4.03498 23.0653 4.87347 23.5499L15.0718 29.4381C15.9103 29.9221 16.9431 29.9221 17.7816 29.4381L27.98 23.5499C28.8185 23.0659 29.3349 22.1714 29.3349 21.2027L29.3355 21.202Z" fill="white"/>
    <path d="M28.0144 20.8163V9.81186C28.0144 9.07615 27.622 8.39651 26.9853 8.02897L17.4548 2.52645C16.8175 2.15891 16.0332 2.15891 15.3959 2.52645L5.86603 8.02897C5.22875 8.39651 4.83691 9.07615 4.83691 9.81186V20.8163C4.83691 21.552 5.22937 22.2316 5.86603 22.5992L15.3966 28.1017C16.0338 28.4692 16.8181 28.4692 17.4554 28.1017L26.9859 22.5992C27.6232 22.2316 28.015 21.552 28.015 20.8163H28.0144Z" fill="#581CAF"/>
    <path d="M20.0479 13.1411L28.0148 8.27588" stroke="white" stroke-width="0.0467213" stroke-miterlimit="10"/>
    <path d="M4.83691 8.27588L12.08 12.7736" stroke="white" stroke-width="0.0467213" stroke-miterlimit="10"/>
    <path d="M16.4264 28.5568L16.4258 19.6604" stroke="white" stroke-width="0.0467213" stroke-miterlimit="10"/>
    <path d="M16.4268 30.7296C17.6268 30.7296 18.5996 29.7568 18.5996 28.5568C18.5996 27.3567 17.6268 26.3839 16.4268 26.3839C15.2267 26.3839 14.2539 27.3567 14.2539 28.5568C14.2539 29.7568 15.2267 30.7296 16.4268 30.7296Z" fill="#D936E7"/>
    <path d="M28.0137 10.4487C29.2137 10.4487 30.1865 9.47591 30.1865 8.27588C30.1865 7.07585 29.2137 6.10303 28.0137 6.10303C26.8136 6.10303 25.8408 7.07585 25.8408 8.27588C25.8408 9.47591 26.8136 10.4487 28.0137 10.4487Z" fill="#D936E7"/>
    <path d="M4.83789 10.4487C6.03792 10.4487 7.01074 9.47591 7.01074 8.27588C7.01074 7.07585 6.03792 6.10303 4.83789 6.10303C3.63786 6.10303 2.66504 7.07585 2.66504 8.27588C2.66504 9.47591 3.63786 10.4487 4.83789 10.4487Z" fill="#D936E7"/>
    <path d="M22.9821 18.6485V11.9574C22.9821 11.6989 22.8438 11.4597 22.6201 11.3301L16.8255 7.98485C16.6012 7.85527 16.3252 7.85527 16.101 7.98485L10.3063 11.3301C10.082 11.4597 9.94434 11.6989 9.94434 11.9574V18.6485C9.94434 18.907 10.0826 19.1463 10.3063 19.2758L16.101 22.6211C16.3252 22.7506 16.6012 22.7506 16.8255 22.6211L22.6201 19.2758C22.8444 19.1463 22.9821 18.907 22.9821 18.6485Z" fill="#F1A9FC"/>
    <path d="M10.4547 11.8353L16.0999 15.0946C16.3242 15.2242 16.6001 15.2242 16.8244 15.0946L22.4696 11.8353C22.6969 11.7039 22.6969 11.3756 22.4696 11.2441L16.8244 7.98485C16.6001 7.85527 16.3242 7.85527 16.0999 7.98485L10.4547 11.2441C10.2273 11.3756 10.2273 11.7039 10.4547 11.8353Z" fill="#F16CFF"/>
    <path d="M16.4629 15.7218V22.3207C16.4629 22.5475 16.2175 22.6895 16.0212 22.5761L10.3063 19.277C10.082 19.1474 9.94434 18.9082 9.94434 18.6497V12.0508C9.94434 11.824 10.1898 11.682 10.386 11.7954L16.101 15.0945C16.3252 15.2241 16.4629 15.4633 16.4629 15.7218Z" fill="#D936E7"/>
  </g>
  <defs>
    <clipPath id="clip0_2006_20373">
      <rect width="31.1475" height="31.1475" fill="white" transform="translate(0.852539 0.204956)"/>
    </clipPath>
  </defs>
</svg> 