<svg width="45" height="45" viewBox="0 0 45 45" fill="none" xmlns="http://www.w3.org/2000/svg">
<path d="M43.7616 21.4262V36.9169C43.7616 40.1032 41.1785 42.6863 37.9921 42.6863C35.898 42.6863 33.981 41.5737 32.9605 39.7445C30.3261 35.0203 25.5381 25.8288 25.5381 21.4253" fill="#FFC113"/>
<path d="M1.24219 21.4262V36.9169C1.24219 40.1032 3.8253 42.6863 7.01166 42.6863C9.10579 42.6863 11.0227 41.5737 12.0432 39.7445C14.6777 35.0203 19.4657 25.8288 19.4657 21.4253" fill="#FFC113"/>
<path d="M34.6522 12.314H10.3545V30.5366H34.6522V12.314Z" fill="#41B6A4"/>
<path d="M10.3539 30.5375C15.3862 30.5375 19.4657 26.458 19.4657 21.4257C19.4657 16.3934 15.3862 12.314 10.3539 12.314C5.32166 12.314 1.24219 16.3934 1.24219 21.4257C1.24219 26.458 5.32166 30.5375 10.3539 30.5375Z" fill="#41B6A4"/>
<path d="M34.6498 30.5375C39.6821 30.5375 43.7616 26.458 43.7616 21.4257C43.7616 16.3934 39.6821 12.314 34.6498 12.314C29.6176 12.314 25.5381 16.3934 25.5381 21.4257C25.5381 26.458 29.6176 30.5375 34.6498 30.5375Z" fill="#41B6A4"/>
<path d="M10.353 24.8261C9.76574 24.8261 9.29004 24.3504 9.29004 23.7631V19.0894C9.29004 18.5021 9.76574 18.0264 10.353 18.0264C10.9404 18.0264 11.4161 18.5021 11.4161 19.0894V23.7631C11.4161 24.3504 10.9404 24.8261 10.353 24.8261Z" fill="#FFC113"/>
<path d="M12.6869 22.4903H8.0132C7.42589 22.4903 6.9502 22.0146 6.9502 21.4273C6.9502 20.84 7.42589 20.3643 8.0132 20.3643H12.6869C13.2742 20.3643 13.7499 20.84 13.7499 21.4273C13.7499 22.0146 13.2742 22.4903 12.6869 22.4903Z" fill="#FFC113"/>
<path d="M32.9983 24.1399C32.7264 24.1399 32.4544 24.0363 32.2471 23.8281C31.8317 23.4127 31.8317 22.7403 32.2471 22.3249L35.5504 19.0216C35.9659 18.6061 36.6383 18.6061 37.0537 19.0216C37.4692 19.437 37.4692 20.1094 37.0537 20.5248L33.7504 23.8281C33.5431 24.0354 33.2712 24.1399 32.9992 24.1399H32.9983Z" fill="#FFC113"/>
<path d="M36.3016 24.1399C36.0297 24.1399 35.7577 24.0363 35.5504 23.8281L32.2471 20.5248C31.8317 20.1094 31.8317 19.437 32.2471 19.0216C32.6626 18.6061 33.335 18.6061 33.7504 19.0216L37.0537 22.3249C37.4692 22.7403 37.4692 23.4127 37.0537 23.8281C36.8464 24.0354 36.5745 24.1399 36.3025 24.1399H36.3016Z" fill="#FFC113"/>
<path d="M22.5016 21.659C17.2274 21.659 12.9346 17.3672 12.9346 12.092C12.9346 6.8168 17.2274 2.5249 22.5016 2.5249C27.7759 2.5249 32.0687 6.8168 32.0687 12.092C32.0687 17.3672 27.7759 21.659 22.5016 21.659Z" fill="#140C24"/>
<path d="M30.5702 12.0922C30.5702 16.548 26.9578 20.1596 22.5029 20.1596C18.0471 20.1596 14.4355 16.5471 14.4355 12.0922C14.4355 7.63736 18.048 4.0249 22.5029 4.0249C26.9587 4.0249 30.5702 7.63736 30.5702 12.0922Z" fill="#0C0500"/>
<path d="M23.582 13.7306L23.9059 12.9446C24.2522 13.1875 24.5929 13.3089 24.928 13.3089C25.443 13.3089 25.7005 13.129 25.7005 12.7692C25.7005 12.6005 25.6398 12.4397 25.5183 12.2868C25.3969 12.1339 25.1461 11.9629 24.7661 11.774C24.3883 11.5829 24.133 11.4266 24.0003 11.3051C23.8699 11.1815 23.7687 11.0353 23.6967 10.8666C23.627 10.6979 23.5922 10.5113 23.5922 10.3066C23.5922 9.92432 23.7316 9.60723 24.0104 9.35535C24.2916 9.10348 24.6514 8.97754 25.0899 8.97754C25.6611 8.97754 26.0806 9.08436 26.3482 9.29801L26.0817 10.0536C25.7736 9.83324 25.4486 9.72305 25.1068 9.72305C24.9044 9.72305 24.747 9.77702 24.6345 9.88497C24.5243 9.99067 24.4692 10.129 24.4692 10.2999C24.4692 10.5833 24.7829 10.8779 25.4104 11.1837C25.741 11.3456 25.9794 11.4952 26.1255 11.6324C26.2717 11.7673 26.383 11.9258 26.4595 12.108C26.536 12.2879 26.5742 12.4892 26.5742 12.7118C26.5742 13.1121 26.4156 13.4416 26.0985 13.7002C25.7837 13.9588 25.3609 14.0882 24.8302 14.0882C24.3691 14.0882 23.9531 13.969 23.582 13.7306Z" fill="#FFC113"/>
<path d="M21.9375 14.004V11.7776H19.9708V14.004H19.0938V9.06201H19.9708V10.9983H21.9375V9.06201H22.8044V14.004H21.9375Z" fill="#FFC113"/>
</svg>
