<svg width="45" height="45" viewBox="0 0 45 45" fill="none" xmlns="http://www.w3.org/2000/svg">
<path d="M43.7625 22.4379V22.9765C43.6208 27.9939 41.7499 32.5577 38.7451 36.1578C38.2349 36.7531 37.7246 37.2917 37.1577 37.8303C33.7561 41.0902 29.2773 43.2162 24.2882 43.613C24.0898 43.6414 23.863 43.6414 23.6646 43.6414C23.2677 43.6981 22.8992 43.6981 22.5024 43.6981H21.9638C21.7653 43.6981 21.5386 43.6697 21.3401 43.6414C16.5779 43.3862 12.2408 41.572 8.78246 38.6523C8.18717 38.1704 7.64858 37.6602 7.10999 37.0932C3.8501 33.6916 1.72408 29.2128 1.32723 24.2238C1.27053 23.6285 1.24219 23.0332 1.24219 22.4379V21.8993C1.38392 16.8819 3.25482 12.3181 6.28793 8.71801C6.76983 8.12272 7.28007 7.58413 7.84701 7.04554C11.2486 3.78565 15.7274 1.65963 20.7165 1.26278C20.9149 1.23443 21.1417 1.23443 21.3401 1.23443C21.737 1.17773 22.1055 1.17773 22.5024 1.17773H23.0409C23.2394 1.17773 23.4661 1.20608 23.6646 1.23443C28.4269 1.48955 32.7639 3.30375 36.2222 6.22348C36.8175 6.70538 37.3561 7.21562 37.8947 7.78256C41.1546 11.1842 43.2806 15.663 43.6775 20.652C43.7342 21.2473 43.7625 21.8426 43.7625 22.4379Z" fill="black"/>
<path d="M40.5729 22.4374C40.5729 32.4181 32.4826 40.5085 22.5018 40.5085C12.521 40.5085 4.43066 32.4181 4.43066 22.4374C4.43066 12.4566 12.521 4.36621 22.5018 4.36621C32.4826 4.36621 40.5729 12.4566 40.5729 22.4374Z" fill="#FFBD1E"/>
<path d="M30.7527 16.9709L22.9737 21.974L15.1982 16.9709L22.9737 11.9678L30.7527 16.9709Z" fill="white"/>
<path d="M22.9753 22.4113C22.9031 22.4113 22.7912 22.3752 22.719 22.3391L14.9761 17.372C14.8317 17.2998 14.7559 17.1518 14.7559 16.9714C14.7559 16.827 14.8281 16.679 14.9761 16.5707L22.7551 11.5675C22.8995 11.4593 23.0836 11.4593 23.2677 11.5675L31.0467 16.5707C31.1911 16.6429 31.2669 16.7909 31.2669 16.9714C31.2669 17.1157 31.1947 17.2637 31.0467 17.372L23.2316 22.3391C23.1594 22.4113 23.0511 22.4113 22.9753 22.4113ZM16.0734 16.9714L22.9753 21.4258L29.8771 16.9714L22.9753 12.5169L16.0734 16.9714Z" fill="black"/>
<path d="M22.9765 30.8839C22.9044 30.8839 22.7924 30.8478 22.7203 30.8117L14.9773 25.8086C14.7571 25.6642 14.721 25.4079 14.8329 25.1877C14.9773 24.9675 15.2336 24.9314 15.4538 25.0433L22.9765 29.8623L29.6943 25.5523C30.0589 25.296 30.2791 24.8953 30.2791 24.4585V22.0111L23.2328 26.5739C23.0884 26.6821 22.9044 26.6821 22.7203 26.5739L15.7823 22.1194C15.1614 21.7187 14.7607 21.0257 14.7607 20.2568V16.9719C14.7607 16.7156 14.9809 16.499 15.2372 16.499C15.4935 16.499 15.7137 16.7192 15.7137 16.9719V20.2568C15.7137 20.6936 15.9339 21.0979 16.2985 21.3505L23.0163 25.6606L30.539 20.8416C30.6834 20.7694 30.8675 20.7333 31.0119 20.8416C31.1599 20.9138 31.2682 21.0618 31.2682 21.2422V24.5271C31.2682 25.2924 30.9036 25.9891 30.2466 26.3898L23.3086 30.8442C23.1606 30.8442 23.0524 30.8803 22.9802 30.8803L22.9765 30.8839Z" fill="black"/>
</svg>
