<svg width="45" height="45" viewBox="0 0 45 45" fill="none" xmlns="http://www.w3.org/2000/svg">
<path d="M43.7625 6.36914V38.2594C43.7625 40.598 41.8491 42.5114 39.5105 42.5114H5.49422C3.1556 42.5114 1.24219 40.598 1.24219 38.2594V6.36914H43.7625Z" fill="#7D6DC6"/>
<path d="M29.9439 19.3617H28.8809V18.2384C28.8809 15.6013 31.0264 13.4549 33.6635 13.4549L43.763 13.4531V14.5161L33.6635 14.5179C31.6119 14.5179 29.9439 16.1868 29.9439 18.2384V19.3617Z" fill="#0C0500"/>
<path d="M16.1233 18.2323V19.3591H15.0603V18.2323C15.0603 16.1913 13.3808 14.5117 11.3398 14.5117H1.24121V13.4487H11.3398C13.976 13.4487 16.1233 15.596 16.1233 18.2323Z" fill="#0C0500"/>
<path d="M43.763 35.4271L33.6635 35.4253C31.0264 35.4253 28.8809 33.2789 28.8809 30.6418V29.5186H29.9439V30.6418C29.9439 32.6934 31.6119 34.3623 33.6635 34.3623L43.763 34.3641V35.4271Z" fill="#0C0500"/>
<path d="M1.24121 35.4271V34.3641L11.3398 34.3623C13.3914 34.3623 15.0603 32.6934 15.0603 30.6418V29.5186H16.1224V30.6418C16.1233 33.2789 13.9778 35.4253 11.3398 35.4253L1.24121 35.4271Z" fill="#0C0500"/>
<path d="M43.762 22.8457H30.1768V23.9087H43.762V22.8457Z" fill="#0C0500"/>
<path d="M14.8265 22.8457H1.24121V23.9087H14.8265V22.8457Z" fill="#0C0500"/>
<path d="M23.0327 31.0522H21.9697V42.5115H23.0327V31.0522Z" fill="#0C0500"/>
<path d="M23.0327 5.30615H21.9697V17.8257H23.0327V5.30615Z" fill="#0C0500"/>
<path d="M5.49422 2.1167H39.5105C41.8571 2.1167 43.7625 4.02214 43.7625 6.36873V8.49475H1.24219V6.36873C1.24219 4.02214 3.14763 2.1167 5.49422 2.1167Z" fill="#1B0448"/>
<path d="M6.55813 6.36869C7.14521 6.36869 7.62113 5.89277 7.62113 5.30568C7.62113 4.7186 7.14521 4.24268 6.55813 4.24268C5.97104 4.24268 5.49512 4.7186 5.49512 5.30568C5.49512 5.89277 5.97104 6.36869 6.55813 6.36869Z" fill="white"/>
<path d="M10.8101 6.36869C11.3972 6.36869 11.8731 5.89277 11.8731 5.30568C11.8731 4.7186 11.3972 4.24268 10.8101 4.24268C10.223 4.24268 9.74707 4.7186 9.74707 5.30568C9.74707 5.89277 10.223 6.36869 10.8101 6.36869Z" fill="white"/>
<path d="M15.062 6.36869C15.6491 6.36869 16.125 5.89277 16.125 5.30568C16.125 4.7186 15.6491 4.24268 15.062 4.24268C14.4749 4.24268 13.999 4.7186 13.999 5.30568C13.999 5.89277 14.4749 6.36869 15.062 6.36869Z" fill="white"/>
<path d="M31.974 29.8235V21.1822C31.974 20.4717 31.5948 19.8153 30.9801 19.4601L23.4965 15.139C22.8808 14.7838 22.1234 14.7838 21.5078 15.139L14.0242 19.4601C13.4085 19.8153 13.0303 20.4717 13.0303 21.1822V29.8235C13.0303 30.534 13.4094 31.1904 14.0242 31.5456L21.5078 35.8667C22.1234 36.222 22.8808 36.222 23.4965 35.8667L30.9801 31.5456C31.5957 31.1904 31.974 30.534 31.974 29.8235Z" fill="#F1EFFC"/>
<path d="M30.48 29.2901V21.7144C30.48 21.2077 30.2098 20.74 29.7713 20.4867L23.2099 16.6988C22.7714 16.4455 22.231 16.4455 21.7926 16.6988L15.2311 20.4867C14.7926 20.74 14.5225 21.2077 14.5225 21.7144V29.2901C14.5225 29.7968 14.7926 30.2646 15.2311 30.5179L21.7926 34.3058C22.231 34.5591 22.7714 34.5591 23.2099 34.3058L29.7713 30.5179C30.2098 30.2646 30.48 29.7968 30.48 29.2901Z" fill="#0C0500"/>
<path d="M19.7378 27.8705C19.5907 27.8705 19.4525 27.7881 19.3843 27.6525L18.1583 25.2014V27.4763C18.1583 27.6942 17.9821 27.8714 17.7632 27.8714C17.5444 27.8714 17.3682 27.6951 17.3682 27.4763V23.5299C17.3682 23.3474 17.494 23.1879 17.672 23.1463C17.8518 23.102 18.0343 23.1906 18.1158 23.3536L19.3418 25.8047V23.5299C19.3418 23.3119 19.5181 23.1348 19.7369 23.1348C19.9557 23.1348 20.132 23.311 20.132 23.5299V27.4763C20.132 27.6588 20.0062 27.8182 19.8281 27.8598C19.7971 27.8678 19.767 27.8705 19.7369 27.8705H19.7378Z" fill="#E6E4E6"/>
<path d="M23.6871 23.924H21.7134C21.4955 23.924 21.3184 23.7477 21.3184 23.5289C21.3184 23.3101 21.4946 23.1338 21.7134 23.1338H23.6871C23.905 23.1338 24.0822 23.3101 24.0822 23.5289C24.0822 23.7477 23.9059 23.924 23.6871 23.924Z" fill="#E6E4E6"/>
<path d="M23.6871 25.8976H21.7134C21.4955 25.8976 21.3184 25.7213 21.3184 25.5025C21.3184 25.2837 21.4946 25.1074 21.7134 25.1074H23.6871C23.905 25.1074 24.0822 25.2837 24.0822 25.5025C24.0822 25.7213 23.9059 25.8976 23.6871 25.8976Z" fill="#E6E4E6"/>
<path d="M21.7134 27.8704C21.4955 27.8704 21.3184 27.6941 21.3184 27.4753V23.5289C21.3184 23.311 21.4946 23.1338 21.7134 23.1338C21.9322 23.1338 22.1085 23.3101 22.1085 23.5289V27.4753C22.1085 27.6932 21.9322 27.8704 21.7134 27.8704Z" fill="#E6E4E6"/>
<path d="M27.2389 23.924H25.2652C25.0473 23.924 24.8701 23.7477 24.8701 23.5289C24.8701 23.3101 25.0464 23.1338 25.2652 23.1338H27.2389C27.4568 23.1338 27.6339 23.3101 27.6339 23.5289C27.6339 23.7477 27.4577 23.924 27.2389 23.924Z" fill="#E6E4E6"/>
<path d="M26.2515 27.8704C26.0336 27.8704 25.8564 27.6941 25.8564 27.4753V23.5289C25.8564 23.311 26.0327 23.1338 26.2515 23.1338C26.4703 23.1338 26.6466 23.3101 26.6466 23.5289V27.4753C26.6466 27.6932 26.4703 27.8704 26.2515 27.8704Z" fill="#E6E4E6"/>
</svg>
