<svg
  width="14"
  height="14"
  viewBox="0 0 14 14"
  fill="none"
  xmlns="http://www.w3.org/2000/svg"
  preserveAspectRatio="none"
>
  <g clipPath="url(#clip0_2040_102)">
    <path
      d="M6.65988 7.35553C4.96725 7.35553 3.58984 5.97838 3.58984 4.2855C3.58984 2.59262 4.96725 1.21521 6.65988 1.21521C8.3525 1.21521 9.72991 2.59236 9.72991 4.28524C9.72991 5.97813 8.35224 7.35527 6.65988 7.35527V7.35553Z"
      fill="#1B0448"
    />
    <path
      d="M6.65925 6.87428C8.08908 6.87428 9.24818 5.71517 9.24818 4.28535C9.24818 2.85552 8.08908 1.69641 6.65925 1.69641C5.22942 1.69641 4.07031 2.85552 4.07031 4.28535C4.07031 5.71517 5.22942 6.87428 6.65925 6.87428Z"
      fill="#581CAF"
    />
    <path
      d="M6.91016 4.8275L7.00461 4.59825C7.10563 4.66909 7.205 4.70451 7.30274 4.70451C7.45295 4.70451 7.52806 4.65204 7.52806 4.54709C7.52806 4.49789 7.51035 4.45099 7.47492 4.40639C7.4395 4.36178 7.36637 4.31193 7.25551 4.25683C7.14531 4.20107 7.07086 4.15549 7.03216 4.12007C6.99412 4.08399 6.9646 4.04135 6.94361 3.99216C6.92328 3.94296 6.91311 3.88852 6.91311 3.82883C6.91311 3.71731 6.95378 3.62483 7.03511 3.55136C7.11711 3.4779 7.22206 3.44116 7.34997 3.44116C7.51658 3.44116 7.63891 3.47232 7.71697 3.53463L7.63924 3.75503C7.54937 3.69075 7.45459 3.65861 7.35489 3.65861C7.29585 3.65861 7.24994 3.67435 7.21714 3.70584C7.185 3.73667 7.16893 3.77701 7.16893 3.82686C7.16893 3.90951 7.26043 3.99544 7.44344 4.08464C7.53986 4.13187 7.60939 4.17549 7.65203 4.21551C7.69467 4.25486 7.72714 4.30111 7.74944 4.35424C7.77174 4.40671 7.78289 4.46542 7.78289 4.53036C7.78289 4.64712 7.73665 4.74321 7.64416 4.81865C7.55233 4.89408 7.42901 4.9318 7.27421 4.9318C7.13974 4.9318 7.01839 4.89703 6.91016 4.8275Z"
      fill="#F1A9FC"
    />
    <path
      d="M6.431 4.90726V4.25787H5.85738V4.90726H5.60156V3.46582H5.85738V4.03059H6.431V3.46582H6.68387V4.90726H6.431Z"
      fill="#F1A9FC"
    />
    <path
      d="M10.3089 11.0078C10.2838 11.0078 10.2585 11.006 10.2334 11.0018C9.98227 10.9605 9.81252 10.723 9.85386 10.4724L10.7424 5.08656C10.8814 4.2458 11.5974 3.63965 12.4472 3.63965H12.4609C12.7151 3.64146 12.9195 3.84945 12.9177 4.10369C12.9159 4.35664 12.7102 4.5605 12.4573 4.5605C12.4536 4.55999 12.4505 4.55999 12.4472 4.5605C12.0508 4.5605 11.7162 4.8442 11.6514 5.23642L10.7628 10.6223C10.7256 10.8478 10.5303 11.0078 10.3089 11.0078Z"
      fill="#F1A9FC"
    />
    <path
      d="M9.6205 12.2358H4.16746C3.91322 12.2358 3.70703 12.0296 3.70703 11.7754C3.70703 11.5212 3.91322 11.315 4.16746 11.315H9.6205C9.74529 11.315 9.84709 11.2129 9.84709 11.0884V10.0755C9.84709 9.8213 10.0533 9.61511 10.3075 9.61511C10.5618 9.61511 10.7679 9.8213 10.7679 10.0755V11.0884C10.7679 11.7209 10.2527 12.2361 9.62024 12.2361L9.6205 12.2358Z"
      fill="#F1A9FC"
    />
    <path
      d="M10.3799 10.5473H2.8051C2.52347 10.5473 2.27776 10.3556 2.20929 10.0822L1.28817 6.39775C1.19128 6.01019 1.48428 5.63477 1.88399 5.63477H10.8406C11.2098 5.63477 11.4956 5.95851 11.4499 6.32489L10.9894 10.0091C10.9509 10.3163 10.6897 10.547 10.3802 10.547L10.3799 10.5473Z"
      fill="#F16CFF"
    />
    <path
      d="M4.16947 13.6174C4.84771 13.6174 5.39753 13.0676 5.39753 12.3893C5.39753 11.7111 4.84771 11.1613 4.16947 11.1613C3.49123 11.1613 2.94141 11.7111 2.94141 12.3893C2.94141 13.0676 3.49123 13.6174 4.16947 13.6174Z"
      fill="#D936E7"
    />
    <path
      d="M8.46635 13.6174C9.14459 13.6174 9.69441 13.0676 9.69441 12.3893C9.69441 11.7111 9.14459 11.1613 8.46635 11.1613C7.7881 11.1613 7.23828 11.7111 7.23828 12.3893C7.23828 13.0676 7.7881 13.6174 8.46635 13.6174Z"
      fill="#D936E7"
    />
    <path
      d="M3.85773 9.31927C3.68798 9.31927 3.55078 9.18208 3.55078 9.01232V7.17035C3.55078 7.0006 3.68798 6.8634 3.85773 6.8634C4.02749 6.8634 4.16468 7.0006 4.16468 7.17035V9.01232C4.16468 9.18208 4.02749 9.31927 3.85773 9.31927Z"
      fill="#D936E7"
    />
    <path
      d="M6.31476 9.31927C6.14501 9.31927 6.00781 9.18208 6.00781 9.01232V7.17035C6.00781 7.0006 6.14501 6.8634 6.31476 6.8634C6.48452 6.8634 6.62172 7.0006 6.62172 7.17035V9.01232C6.62172 9.18208 6.48452 9.31927 6.31476 9.31927Z"
      fill="#D936E7"
    />
    <path
      d="M8.7718 9.31927C8.60204 9.31927 8.46484 9.18208 8.46484 9.01232V7.17035C8.46484 7.0006 8.60204 6.8634 8.7718 6.8634C8.94155 6.8634 9.07875 7.0006 9.07875 7.17035V9.01232C9.07875 9.18208 8.94155 9.31927 8.7718 9.31927Z"
      fill="#D936E7"
    />
  </g>
  <defs>
    <clipPath id="clip0_2040_102">
      <rect
        width="12.9188"
        height="12.9188"
        fill="white"
        transform="translate(0.632812 0.956909)"
      />
    </clipPath>
  </defs>
</svg> 