<svg
  width="18"
  height="13"
  viewBox="0 0 18 13"
  fill="none"
  xmlns="http://www.w3.org/2000/svg"
  preserveAspectRatio="none"
>
  <path
    d="M14.8913 1.07405C13.8075 0.576803 12.6459 0.210595 11.4311 0.000927951C11.4091 -0.00332205 11.3871 0.00730291 11.3751 0.0271362C11.2256 0.292761 11.0599 0.639844 10.9444 0.911844C9.63756 0.716344 8.33777 0.716344 7.05781 0.911844C6.94235 0.633469 6.77023 0.292761 6.62077 0.0271362C6.60873 0.00730291 6.58677 -0.00261372 6.56481 0.000927951C5.35073 0.209886 4.18906 0.576095 3.1046 1.07405C3.0954 1.07759 3.08689 1.08468 3.08194 1.09318C0.878312 4.38551 0.274103 7.59709 0.570187 10.769C0.571603 10.7846 0.580103 10.7995 0.592145 10.8087C2.04635 11.8768 3.45452 12.525 4.83719 12.9542C4.85915 12.9613 4.88252 12.9528 4.89669 12.9344C5.22394 12.4881 5.51506 12.0171 5.7651 11.522C5.77998 11.4929 5.76581 11.4582 5.73535 11.4469C5.27281 11.2712 4.83294 11.0573 4.40935 10.8151C4.37606 10.7952 4.37323 10.7478 4.40369 10.7244C4.49294 10.6578 4.58219 10.5884 4.66719 10.5183C4.68277 10.5055 4.70402 10.5027 4.72244 10.5112C7.50477 11.7812 10.5166 11.7812 13.2656 10.5112C13.2841 10.5027 13.3053 10.5048 13.3216 10.5183C13.4066 10.5884 13.4959 10.6585 13.5858 10.7251C13.617 10.7478 13.6149 10.7959 13.5809 10.8158C13.1573 11.063 12.7174 11.2726 12.2541 11.4469C12.2237 11.4582 12.2109 11.4936 12.2251 11.5227C12.4801 12.0171 12.7719 12.4881 13.0928 12.9344C13.1063 12.9535 13.1304 12.9613 13.1523 12.9549C14.5414 12.525 15.9502 11.8768 17.4037 10.8094C17.4165 10.8002 17.4243 10.786 17.4257 10.7704C17.7799 7.10339 16.8321 3.91801 14.9125 1.09459C14.909 1.08468 14.9005 1.07759 14.8913 1.07405ZM6.18089 8.8381C5.34294 8.8381 4.65302 8.06884 4.65302 7.12464C4.65302 6.18043 5.32948 5.41118 6.18089 5.41118C7.03869 5.41118 7.72223 6.1868 7.70877 7.12464C7.70877 8.06955 7.0316 8.8381 6.18089 8.8381ZM11.8299 8.8381C10.9926 8.8381 10.302 8.06884 10.302 7.12464C10.302 6.18043 10.9784 5.41118 11.8299 5.41118C12.6876 5.41118 13.3712 6.1868 13.3577 7.12464C13.3577 8.06955 12.6876 8.8381 11.8299 8.8381Z"
    fill="white"
  />
</svg> 