<svg
  width="17"
  height="17"
  viewBox="0 0 17 17"
  fill="none"
  xmlns="http://www.w3.org/2000/svg"
  preserveAspectRatio="none"
>
  <path
    d="M10.8423 8.40624C10.8423 9.56973 9.8991 10.513 8.73561 10.513C7.57212 10.513 6.62891 9.56973 6.62891 8.40624C6.62891 7.24275 7.57212 6.29956 8.73561 6.29956C9.8991 6.29956 10.8423 7.24275 10.8423 8.40624Z"
    fill="#EEEEEE"
    fill-opacity="0.46"
  />
  <path
    fill-rule="evenodd"
    clip-rule="evenodd"
    d="M6.13655 2.16068C6.80788 2.13005 7.0222 2.1228 8.7316 2.1228C10.441 2.1228 10.6553 2.13005 11.3266 2.16068C11.9966 2.19126 12.4541 2.29765 12.8545 2.45325C13.2683 2.6141 13.6194 2.82932 13.9693 3.17922C14.3192 3.52913 14.5344 3.88014 14.6953 4.29403C14.8508 4.69441 14.9573 5.15192 14.9878 5.82188C15.0184 6.49319 15.0257 6.70753 15.0257 8.41689C15.0257 10.1263 15.0184 10.3407 14.9878 11.012C14.9573 11.6819 14.8508 12.1395 14.6953 12.5398C14.5344 12.9537 14.3192 13.3047 13.9693 13.6546C13.6194 14.0045 13.2683 14.2197 12.8545 14.3806C12.4541 14.5362 11.9966 14.6425 11.3266 14.6732C10.6553 14.7038 10.441 14.711 8.7316 14.711C7.0222 14.711 6.80788 14.7038 6.13655 14.6732C5.4666 14.6425 5.00908 14.5362 4.6087 14.3806C4.19481 14.2197 3.8438 14.0045 3.49389 13.6546C3.14399 13.3047 2.92877 12.9537 2.76792 12.5398C2.61232 12.1395 2.50594 11.6819 2.47535 11.012C2.44472 10.3407 2.4375 10.1263 2.4375 8.41689C2.4375 6.70753 2.44472 6.49319 2.47535 5.82188C2.50594 5.15192 2.61232 4.69441 2.76792 4.29403C2.92877 3.88014 3.14399 3.52913 3.49389 3.17922C3.8438 2.82932 4.19481 2.6141 4.6087 2.45325C5.00908 2.29765 5.4666 2.19126 6.13655 2.16068ZM12.0914 5.81241C12.5085 5.81241 12.8467 5.47425 12.8467 5.05711C12.8467 4.63996 12.5085 4.30183 12.0914 4.30183C11.6743 4.30183 11.3361 4.63996 11.3361 5.05711C11.3361 5.47425 11.6743 5.81241 12.0914 5.81241ZM5.49948 8.41689C5.49948 6.63186 6.94654 5.18478 8.7316 5.18478C10.5166 5.18478 11.9637 6.63186 11.9637 8.41689C11.9637 10.2019 10.5166 11.649 8.7316 11.649C6.94654 11.649 5.49948 10.2019 5.49948 8.41689Z"
    fill="#EEEEEE"
    fill-opacity="0.46"
  />
</svg> 