<svg
  width="26"
  height="26"
  viewBox="0 0 26 26"
  fill="none"
  xmlns="http://www.w3.org/2000/svg"
  preserveAspectRatio="none"
>
  <path
    d="M19.6022 22.8099H3.07217C2.37306 22.8099 1.80078 22.2376 1.80078 21.5385V5.00845C1.80078 4.30934 2.37306 3.73706 3.07217 3.73706H23.4169C24.116 3.73706 24.6883 4.30934 24.6883 5.00845V16.694"
    fill="#1B0448"
  />
  <path
    d="M13.2448 15.1814C10.4357 12.3723 5.8817 12.3723 3.07267 15.1814L1.80078 16.4532V21.5393C1.80078 21.5393 1.80078 22.8107 3.07217 22.8107H13.8805L13.2448 15.1814Z"
    fill="#D936E7"
  />
  <path
    d="M5.61719 22.8101L14.1726 14.2547C16.8659 11.5614 21.1909 11.4346 24.0377 13.9648L24.6905 14.5451V22.8101H5.61719Z"
    fill="#F16CFF"
  />
  <path
    d="M17.3736 11.5855L14.1349 8.74622C13.838 8.48067 13.4537 8.33386 13.0554 8.33386C12.6571 8.33386 12.2727 8.48067 11.9758 8.74622L8.7371 11.5855C8.56565 11.7388 8.42883 11.9269 8.33576 12.1373C8.24268 12.3476 8.19549 12.5754 8.19732 12.8054V17.5231C8.19732 17.9526 8.36793 18.3645 8.67161 18.6682C8.9753 18.9719 9.38719 19.1425 9.81667 19.1425H16.2941C16.7236 19.1425 17.1354 18.9719 17.4391 18.6682C17.7428 18.3645 17.9134 17.9526 17.9134 17.5231V12.8C17.9145 12.5709 17.8669 12.3442 17.7739 12.1348C17.6808 11.9255 17.5444 11.7382 17.3736 11.5855ZM14.1349 18.0629H11.9758V15.364C11.9758 15.2208 12.0327 15.0835 12.1339 14.9823C12.2351 14.8811 12.3724 14.8242 12.5156 14.8242H13.5952C13.7383 14.8242 13.8756 14.8811 13.9768 14.9823C14.0781 15.0835 14.1349 15.2208 14.1349 15.364V18.0629ZM16.8339 17.5231C16.8339 17.6663 16.777 17.8036 16.6758 17.9048C16.5745 18.006 16.4372 18.0629 16.2941 18.0629H15.2145V15.364C15.2145 14.9345 15.0439 14.5226 14.7402 14.2189C14.4365 13.9152 14.0246 13.7446 13.5952 13.7446H12.5156C12.0861 13.7446 11.6742 13.9152 11.3705 14.2189C11.0668 14.5226 10.8962 14.9345 10.8962 15.364V18.0629H9.81667C9.67351 18.0629 9.53621 18.006 9.43498 17.9048C9.33376 17.8036 9.27689 17.6663 9.27689 17.5231V12.8C9.27698 12.7234 9.2934 12.6476 9.32504 12.5778C9.35669 12.508 9.40283 12.4457 9.46041 12.3952L12.6991 9.5613C12.7976 9.47476 12.9243 9.42703 13.0554 9.42703C13.1865 9.42703 13.3131 9.47476 13.4116 9.5613L16.6503 12.3952C16.7079 12.4457 16.7541 12.508 16.7857 12.5778C16.8174 12.6476 16.8338 12.7234 16.8339 12.8V17.5231Z"
    fill="#9BC9FF"
  />
</svg> 